<svg width="158" height="48" viewBox="0 0 158 48" fill="none" xmlns="http://www.w3.org/2000/svg">
<path d="M42.7941 16.844H44.6511C45.3654 16.844 46.0558 16.836 46.7225 16.8201C47.3891 16.8043 47.9764 16.7884 48.4843 16.7725L48.3652 17.2487C47.8256 17.2646 47.405 17.3281 47.1034 17.4392C46.8018 17.5344 46.5637 17.7249 46.3891 18.0106C46.2304 18.2804 46.0717 18.7089 45.913 19.2962L42.7703 31.1051C42.6274 31.6765 42.564 32.105 42.5798 32.3907C42.6116 32.6764 42.7544 32.8669 43.0084 32.9621C43.2623 33.0573 43.6512 33.1208 44.175 33.1526L44.0798 33.6287C43.5718 33.597 42.9846 33.5811 42.3179 33.5811C41.6672 33.5653 40.9847 33.5573 40.2704 33.5573C39.5086 33.5573 38.7785 33.5653 38.0801 33.5811C37.3976 33.5811 36.8579 33.597 36.4611 33.6287L36.5564 33.1526C37.1119 33.1208 37.5325 33.0573 37.8182 32.9621C38.1198 32.8669 38.3578 32.6764 38.5324 32.3907C38.707 32.105 38.8658 31.6765 39.0086 31.1051L42.4608 18.2724L32.5804 33.7478H32.0566L30.1281 19.1295L27.1283 30.5575C27.0013 31.0654 26.9378 31.5098 26.9378 31.8907C26.9537 32.2717 27.1045 32.5732 27.3902 32.7955C27.6918 33.0018 28.1997 33.1208 28.9139 33.1526L28.8187 33.6287C28.6282 33.6129 28.3743 33.6049 28.0568 33.6049C27.7394 33.5891 27.4061 33.5811 27.0569 33.5811C26.7236 33.5653 26.422 33.5573 26.1522 33.5573C25.7395 33.5573 25.3268 33.5653 24.9141 33.5811C24.5015 33.5811 24.1602 33.597 23.8904 33.6287L24.0094 33.1526C24.5649 33.1208 25.0014 33.0018 25.3189 32.7955C25.6522 32.5732 25.9141 32.2717 26.1045 31.8907C26.295 31.5098 26.4537 31.0654 26.5807 30.5575L29.6044 19.2962C29.7631 18.7089 29.8266 18.2804 29.7948 18.0106C29.7631 17.7249 29.6202 17.5344 29.3663 17.4392C29.1282 17.3281 28.7393 17.2646 28.1997 17.2487L28.3187 16.7725C28.6838 16.7884 29.152 16.8043 29.7234 16.8201C30.3107 16.836 30.9297 16.844 31.5804 16.844C31.9614 16.844 32.3423 16.836 32.7232 16.8201C33.1042 16.8043 33.4375 16.7884 33.7232 16.7725L35.0802 28.9385L42.7941 16.844Z" fill="#EFEFEF"/>
<path d="M54.347 21.4627C53.982 21.4627 53.5931 21.685 53.1804 22.1294C52.7836 22.5579 52.3868 23.1373 51.99 23.8674C51.6091 24.5975 51.2599 25.4149 50.9425 26.3196C50.6409 27.2243 50.3949 28.1608 50.2044 29.129C50.0298 30.0813 49.9425 30.994 49.9425 31.8669C49.9425 32.4383 50.006 32.851 50.133 33.105C50.2758 33.3589 50.4822 33.4859 50.752 33.4859C51.1171 33.4859 51.498 33.2796 51.8948 32.8669C52.2916 32.4383 52.6805 31.8669 53.0614 31.1527C53.4423 30.4384 53.7836 29.6369 54.0852 28.7481C54.4026 27.8433 54.6565 26.9069 54.847 25.9387C55.0375 24.9705 55.1327 24.034 55.1327 23.1293C55.1327 22.4627 55.0613 22.0183 54.9184 21.7961C54.7915 21.5738 54.601 21.4627 54.347 21.4627ZM46.7522 30.0337C46.7522 29.3036 46.8475 28.5259 47.0379 27.7005C47.2443 26.8751 47.5538 26.0657 47.9664 25.2721C48.3791 24.4785 48.887 23.7642 49.4902 23.1293C50.1092 22.4786 50.8314 21.9627 51.6567 21.5818C52.4979 21.185 53.4344 20.9866 54.4661 20.9866C55.6882 20.9866 56.6326 21.3199 57.2993 21.9865C57.9818 22.6532 58.323 23.6293 58.323 24.9149C58.323 25.6451 58.2198 26.4228 58.0135 27.2481C57.823 28.0735 57.5215 28.883 57.1088 29.6766C56.6961 30.4702 56.1803 31.1924 55.5613 31.8431C54.9581 32.478 54.2359 32.9939 53.3947 33.3907C52.5694 33.7716 51.6408 33.9621 50.6092 33.9621C49.387 33.9621 48.4347 33.6287 47.7522 32.9621C47.0855 32.2955 46.7522 31.3193 46.7522 30.0337Z" fill="#EFEFEF"/>
<path d="M70.1866 25.7958C69.5517 25.4784 68.9962 25.0419 68.52 24.4864C68.0597 23.9309 67.8375 23.288 67.8534 22.5579C67.8692 22.05 68.02 21.6611 68.3057 21.3913C68.5914 21.1215 68.9565 20.9866 69.4009 20.9866C70.004 20.9866 70.4326 21.2326 70.6865 21.7246C70.9405 22.2167 71.0437 22.8833 70.9961 23.7245C70.9484 24.6134 70.8056 25.5419 70.5675 26.5101C70.3453 27.4624 70.0279 28.383 69.6152 29.2718C69.2184 30.1607 68.7105 30.9622 68.0914 31.6765C67.4883 32.3748 66.782 32.9304 65.9725 33.343C65.1789 33.7557 64.2742 33.9621 63.2584 33.9621C62.3854 33.9621 61.7029 33.8192 61.2109 33.5335C60.7188 33.2319 60.3697 32.8589 60.1633 32.4145C59.9728 31.9542 59.8856 31.486 59.9014 31.0098C59.9173 30.0416 60.203 29.0496 60.7585 28.0338C61.314 27.018 62.068 26.0022 63.0203 24.9864C63.9885 23.9547 65.0757 22.9468 66.282 21.9627C65.8852 22.0103 65.5281 22.1373 65.2107 22.3436C64.8932 22.55 64.5996 22.7722 64.3298 23.0103C64.0599 23.2484 63.7901 23.4547 63.5203 23.6293C63.2663 23.8039 62.9965 23.8912 62.7108 23.8912C62.441 23.8912 62.2029 23.8198 61.9965 23.6769C61.8061 23.5182 61.5918 23.4388 61.3537 23.4388C61.1315 23.4388 60.949 23.5261 60.8061 23.7007C60.6792 23.8753 60.5442 24.1689 60.4014 24.5816L60.2109 25.2244H59.7586L60.2824 23.4864C60.5522 22.5024 60.8855 21.8357 61.2823 21.4866C61.695 21.1374 62.1077 20.9628 62.5203 20.9628C62.8219 20.9628 63.0759 21.0342 63.2822 21.177C63.5044 21.304 63.7345 21.431 63.9726 21.558C64.2266 21.685 64.552 21.7484 64.9488 21.7484C65.2027 21.7484 65.4725 21.7167 65.7582 21.6532C66.0598 21.5738 66.3693 21.4389 66.6868 21.2485L66.9249 20.7961L67.4248 21.0342C66.8534 21.8595 66.3376 22.7087 65.8773 23.5817C65.417 24.4388 65.0202 25.3038 64.6869 26.1768C64.3536 27.0339 64.0917 27.8672 63.9012 28.6766C63.7107 29.4702 63.5996 30.2083 63.5679 30.8908C63.5361 31.5892 63.6076 32.0971 63.7822 32.4145C63.9568 32.732 64.2425 32.8907 64.6393 32.8907C65.2265 32.8907 65.7821 32.7478 66.3058 32.4621C66.8296 32.1606 67.3058 31.7638 67.7343 31.2717C68.1629 30.7638 68.5438 30.2083 68.8771 29.6052C69.2104 28.9861 69.4882 28.3513 69.7104 27.7005C69.9326 27.0339 70.0913 26.399 70.1866 25.7958Z" fill="#EFEFEF"/>
<path d="M75.7908 17.3439C75.8226 16.6614 76.0686 16.1376 76.5289 15.7726C77.005 15.4075 77.5685 15.225 78.2192 15.225C78.8065 15.225 79.2509 15.3678 79.5525 15.6535C79.8699 15.9234 80.0128 16.3043 79.9811 16.7963C79.9493 17.4153 79.6954 17.9233 79.2192 18.3201C78.743 18.701 78.1716 18.8915 77.505 18.8915C76.9495 18.8915 76.513 18.7565 76.1955 18.4867C75.894 18.201 75.7591 17.8201 75.7908 17.3439ZM74.8861 23.3436C75.1559 22.55 75.0686 22.1532 74.6242 22.1532C74.3385 22.1532 74.0766 22.296 73.8385 22.5817C73.6004 22.8674 73.3544 23.3515 73.1005 24.034L72.6243 25.2483H72.172L72.8386 23.4388C73.0608 22.8039 73.3386 22.3119 73.6719 21.9627C74.0211 21.6135 74.402 21.3675 74.8147 21.2247C75.2432 21.0659 75.6876 20.9866 76.1479 20.9866C76.7035 20.9866 77.1399 21.0897 77.4574 21.2961C77.7748 21.5024 77.9891 21.7723 78.1002 22.1056C78.2113 22.423 78.251 22.7801 78.2192 23.1769C78.1875 23.5579 78.1081 23.9388 77.9812 24.3197L75.4813 31.605C75.3384 32.0336 75.2988 32.3431 75.3623 32.5336C75.4416 32.7082 75.5924 32.7955 75.8146 32.7955C76.021 32.7955 76.2432 32.6764 76.4812 32.4383C76.7352 32.2003 77.013 31.6923 77.3145 30.9146L77.7431 29.7718H78.1954L77.5764 31.5098C77.3542 32.1606 77.0685 32.6605 76.7193 33.0097C76.3701 33.3589 75.9892 33.6049 75.5765 33.7478C75.1797 33.8906 74.775 33.9621 74.3623 33.9621C73.6798 33.9621 73.156 33.8113 72.791 33.5097C72.4418 33.2081 72.2513 32.7716 72.2196 32.2003C72.1878 31.6289 72.2989 30.9543 72.5529 30.1766L74.8861 23.3436Z" fill="#EFEFEF"/>
<path d="M82.3682 28.4624C83.019 28.2084 83.638 27.9227 84.2252 27.6053C84.8125 27.2878 85.3125 26.9386 85.7252 26.5577C86.3442 26.0022 86.8362 25.3594 87.2013 24.6292C87.5822 23.8832 87.7727 23.0817 87.7727 22.2246C87.7727 21.9072 87.7409 21.7008 87.6774 21.6056C87.6139 21.4945 87.5187 21.4389 87.3917 21.4389C87.0425 21.4389 86.6616 21.6215 86.2489 21.9865C85.8521 22.3357 85.4553 22.8119 85.0585 23.415C84.6617 24.0023 84.2967 24.6769 83.9634 25.4387C83.6459 26.2006 83.384 26.9942 83.1777 27.8195C82.9872 28.6449 82.892 29.4464 82.892 30.2242C82.892 31.113 83.0586 31.7241 83.392 32.0574C83.7411 32.3748 84.1856 32.5336 84.7252 32.5336C85.1538 32.5336 85.6855 32.3907 86.3204 32.105C86.9553 31.8193 87.5822 31.3114 88.2012 30.5813L88.5821 30.7718C88.2488 31.2955 87.8123 31.8034 87.2727 32.2955C86.733 32.7875 86.1061 33.1923 85.3918 33.5097C84.6776 33.8113 83.8999 33.9621 83.0586 33.9621C82.3444 33.9621 81.7016 33.8351 81.1302 33.5811C80.5746 33.3272 80.1302 32.9542 79.7969 32.4621C79.4795 31.9542 79.3207 31.3352 79.3207 30.6051C79.3207 29.7639 79.4557 28.8988 79.7255 28.01C80.0112 27.1212 80.408 26.2641 80.9159 25.4387C81.4238 24.5975 82.0349 23.8436 82.7491 23.1769C83.4634 22.4944 84.257 21.9627 85.13 21.5818C86.0029 21.185 86.9314 20.9866 87.9155 20.9866C88.6139 20.9866 89.2012 21.1453 89.6773 21.4627C90.1535 21.7643 90.3916 22.2325 90.3916 22.8674C90.3916 23.4864 90.217 24.0658 89.8678 24.6054C89.5345 25.1451 89.0821 25.6371 88.5107 26.0815C87.9393 26.526 87.2965 26.9228 86.5823 27.2719C85.8839 27.6211 85.1617 27.9227 84.4157 28.1767C83.6856 28.4306 82.9951 28.629 82.3444 28.7719L82.3682 28.4624Z" fill="#EFEFEF"/>
<path d="M103.79 28.629C103.694 28.883 103.599 29.1766 103.504 29.5099C103.409 29.8432 103.313 30.2004 103.218 30.5813C103.139 30.8829 103.036 31.3193 102.909 31.8907C102.782 32.4463 102.671 33.0256 102.575 33.6287C101.766 33.597 100.861 33.5811 99.8613 33.5811C98.8613 33.5653 97.9646 33.5573 97.171 33.5573C96.7742 33.5573 96.2662 33.5573 95.6472 33.5573C95.0441 33.5573 94.3775 33.5653 93.6473 33.5811C92.9172 33.5811 92.1871 33.5891 91.457 33.6049C90.7269 33.6049 90.0364 33.6129 89.3857 33.6287L89.5047 33.1526C90.0444 33.1208 90.465 33.0573 90.7665 32.9621C91.0681 32.8669 91.2983 32.6764 91.457 32.3907C91.6316 32.105 91.7982 31.6765 91.957 31.1051L95.0996 19.2962C95.2584 18.7089 95.3219 18.2804 95.2901 18.0106C95.2584 17.7249 95.1155 17.5344 94.8616 17.4392C94.6235 17.3281 94.2346 17.2646 93.695 17.2487L93.814 16.7725C94.2267 16.7884 94.7822 16.8043 95.4806 16.8201C96.1948 16.836 96.9487 16.844 97.7424 16.844C98.4407 16.844 99.1153 16.836 99.7661 16.8201C100.417 16.8043 100.98 16.7884 101.456 16.7725L101.337 17.2487C100.798 17.2646 100.377 17.3281 100.076 17.4392C99.774 17.5344 99.5359 17.7249 99.3613 18.0106C99.1867 18.2804 99.0201 18.7089 98.8613 19.2962L95.7187 31.1051C95.5758 31.6765 95.5123 32.105 95.5282 32.3907C95.5441 32.6764 95.671 32.8669 95.9091 32.9621C96.1631 33.0415 96.5599 33.0812 97.0995 33.0812H98.0519C98.7661 33.0812 99.4327 32.9383 100.052 32.6526C100.687 32.3669 101.274 31.8987 101.814 31.2479C102.353 30.5972 102.837 29.7242 103.266 28.629H103.79Z" fill="#E8C547"/>
<path d="M109.039 17.3439C109.07 16.6614 109.316 16.1376 109.777 15.7726C110.253 15.4075 110.816 15.225 111.467 15.225C112.054 15.225 112.499 15.3678 112.8 15.6535C113.118 15.9234 113.261 16.3043 113.229 16.7963C113.197 17.4153 112.943 17.9233 112.467 18.3201C111.991 18.701 111.419 18.8915 110.753 18.8915C110.197 18.8915 109.761 18.7565 109.443 18.4867C109.142 18.201 109.007 17.8201 109.039 17.3439ZM108.134 23.3436C108.404 22.55 108.316 22.1532 107.872 22.1532C107.586 22.1532 107.324 22.296 107.086 22.5817C106.848 22.8674 106.602 23.3515 106.348 24.034L105.872 25.2483H105.42L106.086 23.4388C106.309 22.8039 106.586 22.3119 106.92 21.9627C107.269 21.6135 107.65 21.3675 108.062 21.2247C108.491 21.0659 108.935 20.9866 109.396 20.9866C109.951 20.9866 110.388 21.0897 110.705 21.2961C111.023 21.5024 111.237 21.7723 111.348 22.1056C111.459 22.423 111.499 22.7801 111.467 23.1769C111.435 23.5579 111.356 23.9388 111.229 24.3197L108.729 31.605C108.586 32.0336 108.547 32.3431 108.61 32.5336C108.689 32.7082 108.84 32.7955 109.062 32.7955C109.269 32.7955 109.491 32.6764 109.729 32.4383C109.983 32.2003 110.261 31.6923 110.562 30.9146L110.991 29.7718H111.443L110.824 31.5098C110.602 32.1606 110.316 32.6605 109.967 33.0097C109.618 33.3589 109.237 33.6049 108.824 33.7478C108.428 33.8906 108.023 33.9621 107.61 33.9621C106.928 33.9621 106.404 33.8113 106.039 33.5097C105.69 33.2081 105.499 32.7716 105.467 32.2003C105.436 31.6289 105.547 30.9543 105.801 30.1766L108.134 23.3436Z" fill="#E8C547"/>
<path d="M114.259 33.2954C114.386 33.3589 114.521 33.4065 114.664 33.4383C114.807 33.4542 114.981 33.4621 115.187 33.4621C115.775 33.4621 116.251 33.2875 116.616 32.9383C116.997 32.5732 117.187 32.0653 117.187 31.4146C117.187 30.8908 117.076 30.3591 116.854 29.8194C116.632 29.2639 116.299 28.6608 115.854 28.01C115.489 27.4386 115.148 26.8831 114.83 26.3434C114.529 25.8038 114.378 25.1848 114.378 24.4864C114.378 23.8039 114.553 23.2007 114.902 22.677C115.251 22.1532 115.743 21.7405 116.378 21.4389C117.029 21.1374 117.806 20.9866 118.711 20.9866C119.298 20.9866 119.862 21.058 120.401 21.2009C120.957 21.3437 121.417 21.5897 121.782 21.9389C122.147 22.2881 122.33 22.796 122.33 23.4626C122.33 23.7007 122.274 23.9626 122.163 24.2483C122.068 24.534 121.909 24.7721 121.687 24.9626C121.481 25.1371 121.211 25.2244 120.878 25.2244C120.481 25.2244 120.163 25.0816 119.925 24.7959C119.687 24.4943 119.568 24.1055 119.568 23.6293C119.568 23.2007 119.64 22.8198 119.782 22.4865C119.941 22.1373 120.116 21.8595 120.306 21.6532C120.1 21.5262 119.822 21.4627 119.473 21.4627C118.902 21.4627 118.449 21.6373 118.116 21.9865C117.798 22.3357 117.632 22.8357 117.616 23.4864C117.616 23.8515 117.679 24.2007 117.806 24.534C117.933 24.8514 118.108 25.1768 118.33 25.5101C118.552 25.8435 118.79 26.2165 119.044 26.6291C119.521 27.4069 119.87 28.0735 120.092 28.629C120.33 29.1845 120.449 29.748 120.449 30.3194C120.449 31.0019 120.267 31.6209 119.901 32.1764C119.552 32.7161 119.036 33.1526 118.354 33.4859C117.687 33.8033 116.894 33.9621 115.973 33.9621C115.306 33.9621 114.672 33.8748 114.068 33.7002C113.465 33.5256 112.973 33.2399 112.592 32.8431C112.227 32.4304 112.045 31.8828 112.045 31.2003C112.045 30.7559 112.164 30.3591 112.402 30.0099C112.624 29.6607 112.949 29.4861 113.378 29.4861C113.807 29.4861 114.14 29.6686 114.378 30.0337C114.616 30.3829 114.735 30.8194 114.735 31.3432C114.735 31.7558 114.672 32.1288 114.545 32.4621C114.434 32.7955 114.338 33.0732 114.259 33.2954Z" fill="#E8C547"/>
<path d="M132.066 21.3199L131.994 21.7961H123.733L123.852 21.3199H132.066ZM126.399 31.605C126.288 32.0177 126.296 32.3193 126.423 32.5098C126.566 32.7002 126.772 32.7955 127.042 32.7955C127.375 32.7955 127.709 32.6288 128.042 32.2955C128.375 31.9622 128.669 31.4463 128.923 30.748L129.28 29.7718H129.732L129.256 31.1527C128.939 32.105 128.471 32.8113 127.852 33.2716C127.248 33.7319 126.526 33.9621 125.685 33.9621C124.955 33.9621 124.391 33.7954 123.995 33.4621C123.598 33.1288 123.36 32.6764 123.28 32.105C123.217 31.5177 123.28 30.8749 123.471 30.1766L127.042 17.7725C127.725 17.7566 128.344 17.7249 128.899 17.6772C129.455 17.6296 129.986 17.5503 130.494 17.4392L126.399 31.605Z" fill="#E8C547"/>
<path d="M158.001 5.42188H146.859L137.188 42.2051H148.261V47.627H0V42.2051H11.5322L21.2031 5.42188H9.74023V0H158.001V5.42188ZM24.5713 5.42188L14.9004 42.2051H133.819L143.49 5.42188H24.5713Z" fill="#6B5E4E"/>
<circle cx="13.9332" cy="2.71094" r="0.946918" fill="#0A0A0C"/>
<circle cx="17.9915" cy="2.71094" r="0.946918" fill="#0A0A0C"/>
<circle cx="22.0497" cy="2.71094" r="0.946918" fill="#0A0A0C"/>
<circle cx="26.1079" cy="2.71094" r="0.946918" fill="#0A0A0C"/>
<circle cx="30.1662" cy="2.71094" r="0.946918" fill="#0A0A0C"/>
<circle cx="34.2243" cy="2.71094" r="0.946918" fill="#0A0A0C"/>
<circle cx="38.2825" cy="2.71094" r="0.946918" fill="#0A0A0C"/>
<circle cx="42.3407" cy="2.71094" r="0.946918" fill="#0A0A0C"/>
<circle cx="46.3989" cy="2.71094" r="0.946918" fill="#0A0A0C"/>
<circle cx="50.4572" cy="2.71094" r="0.946918" fill="#0A0A0C"/>
<circle cx="54.5154" cy="2.71094" r="0.946918" fill="#0A0A0C"/>
<circle cx="58.5736" cy="2.71094" r="0.946918" fill="#0A0A0C"/>
<circle cx="62.6319" cy="2.71094" r="0.946918" fill="#0A0A0C"/>
<circle cx="66.6901" cy="2.71094" r="0.946918" fill="#0A0A0C"/>
<circle cx="70.7483" cy="2.71094" r="0.946918" fill="#0A0A0C"/>
<circle cx="74.8065" cy="2.71094" r="0.946918" fill="#0A0A0C"/>
<circle cx="78.8648" cy="2.71094" r="0.946918" fill="#0A0A0C"/>
<circle cx="82.923" cy="2.71094" r="0.946918" fill="#0A0A0C"/>
<circle cx="86.9812" cy="2.71094" r="0.946918" fill="#0A0A0C"/>
<circle cx="91.0394" cy="2.71094" r="0.946918" fill="#0A0A0C"/>
<circle cx="95.0975" cy="2.71094" r="0.946918" fill="#0A0A0C"/>
<circle cx="99.1558" cy="2.71094" r="0.946918" fill="#0A0A0C"/>
<circle cx="103.214" cy="2.71094" r="0.946918" fill="#0A0A0C"/>
<circle cx="107.272" cy="2.71094" r="0.946918" fill="#0A0A0C"/>
<circle cx="111.33" cy="2.71094" r="0.946918" fill="#0A0A0C"/>
<circle cx="115.389" cy="2.71094" r="0.946918" fill="#0A0A0C"/>
<circle cx="119.447" cy="2.71094" r="0.946918" fill="#0A0A0C"/>
<circle cx="123.505" cy="2.71094" r="0.946918" fill="#0A0A0C"/>
<circle cx="127.563" cy="2.71094" r="0.946918" fill="#0A0A0C"/>
<circle cx="131.622" cy="2.71094" r="0.946918" fill="#0A0A0C"/>
<circle cx="135.68" cy="2.71094" r="0.946918" fill="#0A0A0C"/>
<circle cx="139.738" cy="2.71094" r="0.946918" fill="#0A0A0C"/>
<circle cx="143.796" cy="2.71094" r="0.946918" fill="#0A0A0C"/>
<circle cx="147.854" cy="2.71094" r="0.946918" fill="#0A0A0C"/>
<circle cx="151.913" cy="2.71094" r="0.946918" fill="#0A0A0C"/>
<circle cx="155.971" cy="2.71094" r="0.946918" fill="#0A0A0C"/>
<circle cx="3.11135" cy="44.9164" r="0.946918" fill="#0A0A0C"/>
<circle cx="7.16957" cy="44.9164" r="0.946918" fill="#0A0A0C"/>
<circle cx="11.2277" cy="44.9164" r="0.946918" fill="#0A0A0C"/>
<circle cx="15.2859" cy="44.9164" r="0.946918" fill="#0A0A0C"/>
<circle cx="19.3441" cy="44.9164" r="0.946918" fill="#0A0A0C"/>
<circle cx="23.4024" cy="44.9164" r="0.946918" fill="#0A0A0C"/>
<circle cx="27.4606" cy="44.9164" r="0.946918" fill="#0A0A0C"/>
<circle cx="31.5188" cy="44.9164" r="0.946918" fill="#0A0A0C"/>
<circle cx="35.577" cy="44.9164" r="0.946918" fill="#0A0A0C"/>
<circle cx="39.6353" cy="44.9164" r="0.946918" fill="#0A0A0C"/>
<circle cx="43.6935" cy="44.9164" r="0.946918" fill="#0A0A0C"/>
<circle cx="47.7517" cy="44.9164" r="0.946918" fill="#0A0A0C"/>
<circle cx="51.81" cy="44.9164" r="0.946918" fill="#0A0A0C"/>
<circle cx="55.8682" cy="44.9164" r="0.946918" fill="#0A0A0C"/>
<circle cx="59.9264" cy="44.9164" r="0.946918" fill="#0A0A0C"/>
<circle cx="63.9846" cy="44.9164" r="0.946918" fill="#0A0A0C"/>
<circle cx="68.0429" cy="44.9164" r="0.946918" fill="#0A0A0C"/>
<circle cx="72.101" cy="44.9164" r="0.946918" fill="#0A0A0C"/>
<circle cx="76.1592" cy="44.9164" r="0.946918" fill="#0A0A0C"/>
<circle cx="80.2174" cy="44.9164" r="0.946918" fill="#0A0A0C"/>
<circle cx="84.2757" cy="44.9164" r="0.946918" fill="#0A0A0C"/>
<circle cx="88.3339" cy="44.9164" r="0.946918" fill="#0A0A0C"/>
<circle cx="92.3921" cy="44.9164" r="0.946918" fill="#0A0A0C"/>
<circle cx="96.4503" cy="44.9164" r="0.946918" fill="#0A0A0C"/>
<circle cx="100.509" cy="44.9164" r="0.946918" fill="#0A0A0C"/>
<circle cx="104.567" cy="44.9164" r="0.946918" fill="#0A0A0C"/>
<circle cx="108.625" cy="44.9164" r="0.946918" fill="#0A0A0C"/>
<circle cx="112.683" cy="44.9164" r="0.946918" fill="#0A0A0C"/>
<circle cx="116.741" cy="44.9164" r="0.946918" fill="#0A0A0C"/>
<circle cx="120.8" cy="44.9164" r="0.946918" fill="#0A0A0C"/>
<circle cx="124.858" cy="44.9164" r="0.946918" fill="#0A0A0C"/>
<circle cx="128.916" cy="44.9164" r="0.946918" fill="#0A0A0C"/>
<circle cx="132.974" cy="44.9164" r="0.946918" fill="#0A0A0C"/>
<circle cx="137.032" cy="44.9164" r="0.946918" fill="#0A0A0C"/>
<circle cx="141.091" cy="44.9164" r="0.946918" fill="#0A0A0C"/>
<circle cx="145.149" cy="44.9164" r="0.946918" fill="#0A0A0C"/>
</svg>
