<svg width="179" height="31" viewBox="0 0 179 31" fill="none" xmlns="http://www.w3.org/2000/svg">
<path d="M31.2757 2.67852H34.3481C35.5298 2.67852 36.6721 2.66539 37.7751 2.63913C38.878 2.61287 39.8496 2.58662 40.6899 2.56036L40.493 3.34816C39.6001 3.37442 38.9042 3.47946 38.4053 3.66328C37.9064 3.82084 37.5125 4.13596 37.2236 4.60864C36.961 5.05506 36.6984 5.76408 36.4358 6.7357L31.2363 26.2732C31 27.2185 30.8949 27.9275 30.9212 28.4002C30.9737 28.8729 31.2101 29.188 31.6302 29.3456C32.0504 29.5031 32.6937 29.6082 33.5603 29.6607L33.4028 30.4485C32.5624 30.396 31.5908 30.3697 30.4879 30.3697C29.4112 30.3435 28.2821 30.3303 27.1004 30.3303C25.8399 30.3303 24.6319 30.3435 23.4765 30.3697C22.3473 30.3697 21.4544 30.396 20.7979 30.4485L20.9555 29.6607C21.8746 29.6082 22.5705 29.5031 23.0432 29.3456C23.5421 29.188 23.936 28.8729 24.2249 28.4002C24.5137 27.9275 24.7763 27.2185 25.0127 26.2732L30.7242 5.04193L14.3774 30.6455H13.5108L10.3202 6.45997L5.35705 25.3672C5.14697 26.2075 5.04193 26.9428 5.04193 27.573C5.06819 28.2033 5.31766 28.7022 5.79034 29.0699C6.28928 29.4112 7.1296 29.6082 8.3113 29.6607L8.15374 30.4485C7.83862 30.4222 7.41846 30.4091 6.89326 30.4091C6.36806 30.3829 5.8166 30.3697 5.23888 30.3697C4.68742 30.3435 4.18848 30.3303 3.74206 30.3303C3.05929 30.3303 2.37653 30.3435 1.69377 30.3697C1.01101 30.3697 0.446421 30.396 0 30.4485L0.19695 29.6607C1.11605 29.6082 1.8382 29.4112 2.3634 29.0699C2.91486 28.7022 3.34815 28.2033 3.66327 27.573C3.9784 26.9428 4.241 26.2075 4.45108 25.3672L9.45361 6.7357C9.71621 5.76408 9.82125 5.05506 9.76873 4.60864C9.71621 4.13596 9.47987 3.82084 9.05971 3.66328C8.66581 3.47946 8.02244 3.37442 7.1296 3.34816L7.32655 2.56036C7.93053 2.58662 8.7052 2.61287 9.65056 2.63913C10.6222 2.66539 11.6463 2.67852 12.723 2.67852C13.3532 2.67852 13.9835 2.66539 14.6137 2.63913C15.244 2.61287 15.7954 2.58662 16.2681 2.56036L18.5133 22.6887L31.2757 2.67852Z" fill="#EFEFEF"/>
<path d="M50.3897 10.3202C49.7857 10.3202 49.1424 10.6878 48.4596 11.4231C47.8031 12.1321 47.1466 13.0906 46.4901 14.2986C45.8599 15.5066 45.2821 16.8589 44.7569 18.3558C44.258 19.8526 43.851 21.4019 43.5359 23.0038C43.247 24.5794 43.1026 26.0893 43.1026 27.5336C43.1026 28.479 43.2076 29.1618 43.4177 29.5819C43.654 30.0021 43.9954 30.2122 44.4418 30.2122C45.0458 30.2122 45.676 29.8708 46.3325 29.188C46.989 28.479 47.6324 27.5336 48.2627 26.3519C48.8929 25.1702 49.4575 23.8441 49.9564 22.3736C50.4816 20.8767 50.9018 19.3274 51.2169 17.7255C51.532 16.1237 51.6896 14.5743 51.6896 13.0775C51.6896 11.9746 51.5714 11.2393 51.3351 10.8717C51.125 10.504 50.8099 10.3202 50.3897 10.3202ZM37.8243 24.5006C37.8243 23.2927 37.9819 22.0059 38.297 20.6404C38.6384 19.2749 39.1504 17.9356 39.8332 16.6226C40.5159 15.3096 41.3563 14.1279 42.3541 13.0775C43.3783 12.0008 44.5731 11.1474 45.9386 10.5171C47.3304 9.86064 48.8798 9.53239 50.5867 9.53239C52.6087 9.53239 54.1712 10.0839 55.2741 11.1868C56.4033 12.2897 56.9679 13.9047 56.9679 16.0318C56.9679 17.2397 56.7972 18.5265 56.4558 19.892C56.1407 21.2575 55.6417 22.5968 54.959 23.9098C54.2762 25.2228 53.4228 26.4176 52.3986 27.4943C51.4007 28.5447 50.2059 29.3981 48.8141 30.0546C47.4486 30.6849 45.9124 31 44.2055 31C42.1835 31 40.6079 30.4485 39.4787 29.3456C38.3758 28.2427 37.8243 26.6277 37.8243 24.5006Z" fill="#EFEFEF"/>
<path d="M76.5958 17.4892C75.5454 16.964 74.6263 16.2418 73.8385 15.3227C73.077 14.4036 72.7093 13.3401 72.7356 12.1321C72.7618 11.2918 73.0113 10.6484 73.484 10.202C73.9567 9.7556 74.5606 9.53239 75.2959 9.53239C76.2938 9.53239 77.0028 9.93942 77.423 10.7535C77.8431 11.5675 78.0138 12.6705 77.9351 14.0623C77.8563 15.5328 77.6199 17.069 77.226 18.6709C76.8584 20.2465 76.3332 21.7696 75.6504 23.2401C74.9939 24.7107 74.1536 26.0368 73.1295 27.2185C72.1316 28.374 70.963 29.2931 69.6238 29.9758C68.3108 30.6586 66.8139 31 65.1333 31C63.689 31 62.5598 30.7636 61.7457 30.291C60.9317 29.792 60.354 29.1749 60.0126 28.4396C59.6975 27.6781 59.553 26.9034 59.5793 26.1156C59.6056 24.5137 60.0782 22.8725 60.9973 21.1918C61.9164 19.5112 63.1638 17.8306 64.7394 16.1499C66.3413 14.443 68.1401 12.7755 70.1358 11.1474C69.4793 11.2262 68.8885 11.4362 68.3633 11.7776C67.8381 12.119 67.3523 12.4866 66.9058 12.8805C66.4594 13.2744 66.013 13.6158 65.5666 13.9047C65.1464 14.1935 64.7 14.338 64.2273 14.338C63.7809 14.338 63.387 14.2198 63.0456 13.9835C62.7305 13.7209 62.376 13.5896 61.9821 13.5896C61.6144 13.5896 61.3125 13.734 61.0761 14.0229C60.866 14.3117 60.6428 14.7975 60.4065 15.4803L60.0914 16.5438H59.343L60.2095 13.6683C60.656 12.0402 61.2074 10.9373 61.8639 10.3596C62.5467 9.78186 63.2294 9.493 63.9122 9.493C64.4111 9.493 64.8313 9.61117 65.1727 9.84751C65.5403 10.0576 65.9211 10.2677 66.315 10.4778C66.7352 10.6878 67.2735 10.7929 67.93 10.7929C68.3501 10.7929 68.7966 10.7404 69.2692 10.6353C69.7682 10.504 70.2803 10.2808 70.8055 9.96568L71.1994 9.21727L72.0265 9.61117C71.0812 10.9767 70.2277 12.3816 69.4662 13.8259C68.7047 15.244 68.0482 16.6751 67.4967 18.1194C66.9452 19.5375 66.5119 20.9161 66.1968 22.2554C65.8817 23.5684 65.6979 24.7895 65.6454 25.9187C65.5928 27.0741 65.711 27.9144 65.9999 28.4396C66.2887 28.9648 66.7614 29.2274 67.4179 29.2274C68.3895 29.2274 69.3086 28.9911 70.1752 28.5184C71.0418 28.0195 71.8296 27.363 72.5386 26.5489C73.2476 25.7086 73.8779 24.7895 74.4293 23.7916C74.9808 22.7675 75.4404 21.7171 75.808 20.6404C76.1756 19.5375 76.4382 18.4871 76.5958 17.4892Z" fill="#EFEFEF"/>
<path d="M85.8678 3.50572C85.9204 2.37653 86.3274 1.50995 87.0889 0.905971C87.8767 0.30199 88.809 0 89.8856 0C90.8572 0 91.5925 0.23634 92.0915 0.709021C92.6167 1.15544 92.853 1.78568 92.8005 2.59974C92.748 3.62389 92.3278 4.46421 91.54 5.12071C90.7522 5.75095 89.8068 6.06607 88.7039 6.06607C87.7848 6.06607 87.0627 5.84286 86.5375 5.39644C86.0385 4.92376 85.8153 4.29352 85.8678 3.50572ZM84.371 13.432C84.8174 12.119 84.673 11.4625 83.9377 11.4625C83.465 11.4625 83.0318 11.6988 82.6379 12.1715C82.244 12.6442 81.8369 13.4451 81.4168 14.5743L80.629 16.5832H79.8806L80.9835 13.5896C81.3511 12.5392 81.8107 11.7251 82.3621 11.1474C82.9399 10.5697 83.5701 10.1626 84.2528 9.92629C84.9619 9.66369 85.6972 9.53239 86.4587 9.53239C87.3778 9.53239 88.0999 9.70308 88.6251 10.0445C89.1503 10.3858 89.5049 10.8323 89.6887 11.3837C89.8725 11.9089 89.9381 12.4998 89.8856 13.1563C89.8331 13.7865 89.7018 14.4168 89.4917 15.047L85.3558 27.1004C85.1194 27.8094 85.0538 28.3214 85.1588 28.6366C85.2901 28.9254 85.5396 29.0699 85.9072 29.0699C86.2486 29.0699 86.6163 28.8729 87.0102 28.479C87.4303 28.0851 87.8899 27.2448 88.3888 25.958L89.0978 24.0673H89.8462L88.8221 26.9428C88.4545 28.0195 87.9818 28.8466 87.4041 29.4244C86.8263 30.0021 86.1961 30.4091 85.5133 30.6455C84.8568 30.8818 84.1872 31 83.5044 31C82.3753 31 81.5087 30.7505 80.9047 30.2516C80.327 29.7526 80.0119 29.0305 79.9593 28.0851C79.9068 27.1397 80.0906 26.0237 80.5108 24.737L84.371 13.432Z" fill="#EFEFEF"/>
<path d="M96.75 21.9009C97.8266 21.4807 98.8508 21.008 99.8224 20.4828C100.794 19.9576 101.621 19.3799 102.304 18.7497C103.328 17.8306 104.142 16.767 104.746 15.5591C105.376 14.3249 105.692 12.9987 105.692 11.5807C105.692 11.0555 105.639 10.7141 105.534 10.5565C105.429 10.3727 105.271 10.2808 105.061 10.2808C104.484 10.2808 103.853 10.5828 103.171 11.1868C102.514 11.7645 101.858 12.5523 101.201 13.5502C100.545 14.5218 99.9406 15.6379 99.3891 16.8983C98.8639 18.1588 98.4306 19.4718 98.0892 20.8373C97.7741 22.2029 97.6165 23.529 97.6165 24.8157C97.6165 26.2863 97.8923 27.2973 98.4437 27.8488C99.0215 28.374 99.7567 28.6366 100.65 28.6366C101.359 28.6366 102.238 28.4002 103.289 27.9275C104.339 27.4549 105.376 26.6145 106.401 25.4066L107.031 25.7217C106.479 26.5883 105.757 27.4286 104.864 28.2427C103.971 29.0567 102.934 29.7264 101.753 30.2516C100.571 30.7505 99.2841 31 97.8923 31C96.7106 31 95.647 30.7899 94.7017 30.3697C93.7826 29.9496 93.0473 29.3325 92.4958 28.5184C91.9706 27.6781 91.708 26.6539 91.708 25.446C91.708 24.0542 91.9312 22.623 92.3777 21.1525C92.8503 19.6819 93.5068 18.2639 94.3472 16.8983C95.1875 15.5066 96.1985 14.2592 97.3802 13.1563C98.5619 12.0271 99.8749 11.1474 101.319 10.5171C102.764 9.86064 104.3 9.53239 105.928 9.53239C107.083 9.53239 108.055 9.79499 108.843 10.3202C109.631 10.8191 110.024 11.5938 110.024 12.6442C110.024 13.6683 109.736 14.6268 109.158 15.5197C108.606 16.4125 107.858 17.2266 106.913 17.9619C105.967 18.6971 104.904 19.3536 103.722 19.9314C102.567 20.5091 101.372 21.008 100.138 21.4282C98.9295 21.8483 97.7872 22.1766 96.7106 22.4129L96.75 21.9009Z" fill="#EFEFEF"/>
<path d="M132.191 22.1766C132.034 22.5968 131.876 23.0826 131.718 23.634C131.561 24.1855 131.403 24.7763 131.246 25.4066C131.114 25.9055 130.944 26.6277 130.734 27.573C130.524 28.4921 130.34 29.4506 130.182 30.4485C128.843 30.396 127.346 30.3697 125.692 30.3697C124.037 30.3435 122.554 30.3303 121.241 30.3303C120.584 30.3303 119.744 30.3303 118.72 30.3303C117.722 30.3303 116.619 30.3435 115.411 30.3697C114.203 30.3697 112.995 30.3829 111.787 30.4091C110.579 30.4091 109.437 30.4222 108.36 30.4485L108.557 29.6607C109.45 29.6082 110.146 29.5031 110.645 29.3456C111.144 29.188 111.525 28.8729 111.787 28.4002C112.076 27.9275 112.352 27.2185 112.614 26.2732L117.814 6.7357C118.076 5.76408 118.181 5.05506 118.129 4.60864C118.076 4.13596 117.84 3.82084 117.42 3.66328C117.026 3.47946 116.383 3.37442 115.49 3.34816L115.687 2.56036C116.369 2.58662 117.289 2.61287 118.444 2.63913C119.626 2.66539 120.873 2.67852 122.186 2.67852C123.342 2.67852 124.458 2.66539 125.534 2.63913C126.611 2.61287 127.543 2.58662 128.331 2.56036L128.134 3.34816C127.241 3.37442 126.545 3.47946 126.046 3.66328C125.547 3.82084 125.153 4.13596 124.865 4.60864C124.576 5.05506 124.3 5.76408 124.037 6.7357L118.838 26.2732C118.602 27.2185 118.497 27.9275 118.523 28.4002C118.549 28.8729 118.759 29.188 119.153 29.3456C119.573 29.4769 120.23 29.5425 121.123 29.5425H122.698C123.88 29.5425 124.983 29.3062 126.007 28.8335C127.057 28.3608 128.029 27.5862 128.922 26.5095C129.815 25.4328 130.616 23.9885 131.325 22.1766H132.191Z" fill="#E8C547"/>
<path d="M140.875 3.50572C140.928 2.37653 141.335 1.50995 142.097 0.905971C142.884 0.30199 143.817 0 144.893 0C145.865 0 146.6 0.23634 147.099 0.709021C147.624 1.15544 147.861 1.78568 147.808 2.59974C147.756 3.62389 147.335 4.46421 146.548 5.12071C145.76 5.75095 144.814 6.06607 143.712 6.06607C142.792 6.06607 142.07 5.84286 141.545 5.39644C141.046 4.92376 140.823 4.29352 140.875 3.50572ZM139.379 13.432C139.825 12.119 139.681 11.4625 138.945 11.4625C138.473 11.4625 138.039 11.6988 137.645 12.1715C137.252 12.6442 136.845 13.4451 136.424 14.5743L135.637 16.5832H134.888L135.991 13.5896C136.359 12.5392 136.818 11.7251 137.37 11.1474C137.947 10.5697 138.578 10.1626 139.26 9.92629C139.969 9.66369 140.705 9.53239 141.466 9.53239C142.385 9.53239 143.108 9.70308 143.633 10.0445C144.158 10.3858 144.512 10.8323 144.696 11.3837C144.88 11.9089 144.946 12.4998 144.893 13.1563C144.841 13.7865 144.709 14.4168 144.499 15.047L140.363 27.1004C140.127 27.8094 140.061 28.3214 140.166 28.6366C140.298 28.9254 140.547 29.0699 140.915 29.0699C141.256 29.0699 141.624 28.8729 142.018 28.479C142.438 28.0851 142.897 27.2448 143.396 25.958L144.105 24.0673H144.854L143.83 26.9428C143.462 28.0195 142.989 28.8466 142.412 29.4244C141.834 30.0021 141.204 30.4091 140.521 30.6455C139.864 30.8818 139.195 31 138.512 31C137.383 31 136.516 30.7505 135.912 30.2516C135.335 29.7526 135.019 29.0305 134.967 28.0851C134.914 27.1397 135.098 26.0237 135.518 24.737L139.379 13.432Z" fill="#E8C547"/>
<path d="M149.512 29.897C149.722 30.0021 149.946 30.0809 150.182 30.1334C150.418 30.1596 150.707 30.1728 151.049 30.1728C152.02 30.1728 152.808 29.8839 153.412 29.3062C154.042 28.7022 154.357 27.8619 154.357 26.7852C154.357 25.9187 154.173 25.0389 153.806 24.1461C153.438 23.227 152.887 22.2291 152.151 21.1525C151.547 20.2071 150.983 19.288 150.458 18.3952C149.959 17.5023 149.709 16.4782 149.709 15.3227C149.709 14.1936 149.998 13.1957 150.576 12.3291C151.154 11.4625 151.968 10.7797 153.018 10.2808C154.095 9.78186 155.381 9.53239 156.878 9.53239C157.85 9.53239 158.782 9.65056 159.675 9.8869C160.594 10.1232 161.356 10.5303 161.96 11.108C162.564 11.6857 162.866 12.526 162.866 13.629C162.866 14.0229 162.774 14.4561 162.59 14.9288C162.432 15.4015 162.17 15.7954 161.802 16.1105C161.461 16.3994 161.014 16.5438 160.463 16.5438C159.806 16.5438 159.281 16.3075 158.887 15.8348C158.493 15.3359 158.296 14.6925 158.296 13.9047C158.296 13.1957 158.414 12.5654 158.651 12.014C158.913 11.4362 159.202 10.9767 159.517 10.6353C159.176 10.4252 158.716 10.3202 158.139 10.3202C157.193 10.3202 156.445 10.6091 155.893 11.1868C155.368 11.7645 155.093 12.5917 155.066 13.6683C155.066 14.2723 155.171 14.8501 155.381 15.4015C155.592 15.9267 155.88 16.465 156.248 17.0165C156.616 17.568 157.01 18.1851 157.43 18.8678C158.218 20.1546 158.795 21.2575 159.163 22.1766C159.557 23.0957 159.754 24.0279 159.754 24.9733C159.754 26.1025 159.452 27.1266 158.848 28.0457C158.27 28.9386 157.417 29.6607 156.287 30.2122C155.184 30.7374 153.871 31 152.348 31C151.245 31 150.195 30.8555 149.197 30.5667C148.199 30.2778 147.385 29.8051 146.755 29.1486C146.151 28.4659 145.849 27.5599 145.849 26.4307C145.849 25.6954 146.046 25.0389 146.44 24.4612C146.808 23.8835 147.346 23.5946 148.055 23.5946C148.764 23.5946 149.315 23.8966 149.709 24.5006C150.103 25.0783 150.3 25.8005 150.3 26.6671C150.3 27.3498 150.195 27.9669 149.985 28.5184C149.801 29.0699 149.644 29.5294 149.512 29.897Z" fill="#E8C547"/>
<path d="M178.973 10.0839L178.855 10.8717H165.186L165.383 10.0839H178.973ZM169.598 27.1004C169.414 27.7831 169.427 28.2821 169.638 28.5972C169.874 28.9123 170.215 29.0699 170.662 29.0699C171.213 29.0699 171.765 28.7941 172.316 28.2427C172.868 27.6912 173.353 26.8378 173.774 25.6823L174.364 24.0673H175.113L174.325 26.3519C173.8 27.9275 173.025 29.0961 172.001 29.8577C171.003 30.6192 169.808 31 168.416 31C167.209 31 166.276 30.7242 165.62 30.1728C164.963 29.6213 164.569 28.8729 164.438 27.9275C164.333 26.9559 164.438 25.8924 164.753 24.737L170.662 4.21474C171.791 4.18848 172.815 4.13596 173.734 4.05718C174.653 3.9784 175.533 3.8471 176.373 3.66328L169.598 27.1004Z" fill="#E8C547"/>
</svg>
