<svg width="93" height="94" viewBox="0 0 93 94" fill="none" xmlns="http://www.w3.org/2000/svg">
<g clip-path="url(#clip0_424_298)">
<path d="M76.9526 17.0111C77.1813 15.6699 78.0722 14.8683 78.9422 15.2209C79.8121 15.5735 80.3321 16.9469 80.1034 18.2881L70.082 77.053C69.8533 78.3941 68.9624 79.1958 68.0925 78.8432C67.2225 78.4906 66.7026 77.1171 66.9313 75.776L76.9526 17.0111Z" fill="#6B5E4E"/>
<path d="M86.781 13V20.0833H16.9431V13H86.781Z" fill="#6B5E4E"/>
<g clip-path="url(#clip1_424_298)">
<circle cx="21.7281" cy="16.6756" r="0.870141" fill="#0A0A0C"/>
<circle cx="25.4572" cy="16.6756" r="0.870141" fill="#0A0A0C"/>
<circle cx="29.1864" cy="16.6756" r="0.870141" fill="#0A0A0C"/>
<circle cx="32.9156" cy="16.6756" r="0.870141" fill="#0A0A0C"/>
<circle cx="36.6448" cy="16.6756" r="0.870141" fill="#0A0A0C"/>
<circle cx="40.3739" cy="16.6756" r="0.870141" fill="#0A0A0C"/>
<circle cx="44.1032" cy="16.6756" r="0.870141" fill="#0A0A0C"/>
<circle cx="47.8323" cy="16.6756" r="0.870141" fill="#0A0A0C"/>
<circle cx="51.5614" cy="16.6756" r="0.870141" fill="#0A0A0C"/>
<circle cx="55.2906" cy="16.6756" r="0.870141" fill="#0A0A0C"/>
<circle cx="59.0198" cy="16.6756" r="0.870141" fill="#0A0A0C"/>
<circle cx="62.7489" cy="16.6756" r="0.870141" fill="#0A0A0C"/>
<circle cx="66.4782" cy="16.6756" r="0.870141" fill="#0A0A0C"/>
<circle cx="70.2073" cy="16.6756" r="0.870141" fill="#0A0A0C"/>
<circle cx="73.9365" cy="16.6756" r="0.870141" fill="#0A0A0C"/>
<circle cx="77.6657" cy="16.6756" r="0.870141" fill="#0A0A0C"/>
<circle cx="81.3948" cy="16.6756" r="0.870141" fill="#0A0A0C"/>
<circle cx="85.124" cy="16.6756" r="0.870141" fill="#0A0A0C"/>
</g>
<path d="M34.0094 29.9754L37.91 27.7234C39.4102 26.8572 40.8508 26.0033 42.2317 25.1615C43.6127 24.3198 44.8269 23.5743 45.8745 22.925L46.2019 24.0695C45.0877 24.7573 44.2812 25.4007 43.7825 25.9998C43.2646 26.5655 42.9955 27.2543 42.9752 28.0661C42.969 28.8253 43.1554 29.9179 43.5341 31.3439L51.2535 59.9585C51.6464 61.3319 52.0327 62.309 52.4125 62.8898C52.8257 63.4514 53.3566 63.6782 54.0055 63.5702C54.6544 63.4623 55.5482 63.1241 56.6869 62.5556L57.0643 63.6712C55.9589 64.2205 54.7062 64.8993 53.306 65.7077C51.9199 66.4635 50.4767 67.2745 48.9765 68.1406C47.3763 69.0645 45.8524 69.9666 44.4047 70.8468C42.9712 71.6745 41.857 72.3622 41.062 72.9101L40.6846 71.7945C41.8129 71.0541 42.6194 70.4107 43.104 69.8642C43.6219 69.2985 43.8911 68.6098 43.9113 67.798C43.9316 66.9862 43.7453 65.8936 43.3524 64.5202L35.0416 33.38L33.0552 77.8662L31.9551 78.5014L10.1774 50.1357L17.7349 77.7769C18.0841 78.9977 18.4897 80.0082 18.9516 80.8083C19.4469 81.5892 20.1293 82.0397 20.9988 82.1599C21.8825 82.2276 23.0936 81.8617 24.6324 81.0623L25.0098 82.1779C24.5904 82.3755 24.0474 82.6668 23.3807 83.0518C22.6946 83.4034 21.9849 83.7909 21.2515 84.2144C20.5321 84.5852 19.8891 84.9343 19.3224 85.2615C18.4556 85.7619 17.5984 86.279 16.7509 86.8128C15.8841 87.3133 15.1865 87.7604 14.6583 88.1543L14.3309 87.0098C15.4592 86.2695 16.2317 85.4901 16.6482 84.6718C17.0788 83.8008 17.2633 82.8499 17.2014 81.8188C17.1395 80.7877 16.9339 79.6618 16.5847 78.441L9.27933 51.1209C8.90054 49.695 8.5142 48.7178 8.12032 48.1896C7.70718 47.628 7.17617 47.4012 6.52727 47.5091C5.89247 47.5645 4.9987 47.9027 3.84596 48.5238L3.51856 47.3793C4.30458 46.9699 5.3073 46.4354 6.52672 45.7759C7.77947 45.097 9.08928 44.363 10.4561 43.5739C11.2562 43.1119 12.0467 42.6333 12.8276 42.138C13.6085 41.6427 14.2893 41.2052 14.8702 40.8254L32.4739 64.7333L34.0094 29.9754Z" fill="#EFEFEF"/>
<path d="M85.6724 32.6506C85.7803 33.2995 85.9364 34.0318 86.1406 34.8474C86.3447 35.6629 86.5778 36.5285 86.8397 37.4441C87.0387 38.1738 87.3513 39.2157 87.7775 40.5699C88.1845 41.8907 88.6537 43.2422 89.1851 44.6246C87.4463 45.5395 85.5268 46.6033 83.4265 47.8159C81.307 48.9952 79.4138 50.066 77.7469 51.0284C76.9134 51.5096 75.8466 52.1255 74.5464 52.8762C73.2796 53.6076 71.889 54.4327 70.3747 55.3514C68.8411 56.2368 67.3172 57.1389 65.8029 58.0576C64.2694 58.943 62.8288 59.7969 61.4812 60.6194L61.1538 59.4749C62.2488 58.7538 63.0552 58.1104 63.5732 57.5447C64.0911 56.9789 64.3435 56.2998 64.3305 55.5072C64.3507 54.6954 64.1811 53.5932 63.8215 52.2006L56.1022 23.586C55.7234 22.16 55.3371 21.1829 54.9432 20.6547C54.53 20.0931 53.999 19.8663 53.3501 19.9742C52.7153 20.0295 51.8215 20.3678 50.6688 20.9888L50.3414 19.8443C51.2274 19.3772 52.4135 18.7369 53.8997 17.9233C55.4191 17.0905 57.0123 16.1929 58.6792 15.2306C60.1461 14.3837 61.5533 13.549 62.9009 12.7265C64.2485 11.904 65.4128 11.1873 66.3937 10.5766L66.7211 11.7211C65.6068 12.4088 64.8004 13.0522 64.3017 13.6513C63.7837 14.2171 63.5146 14.9058 63.4944 15.7176C63.4549 16.4961 63.6245 17.5983 64.0033 19.0243L71.7227 47.6388C72.1155 49.0122 72.5019 49.9894 72.8817 50.5702C73.2615 51.151 73.7591 51.3971 74.3747 51.3084C75.0043 51.1671 75.8859 50.7693 77.0194 50.1149L79.0197 48.96C80.5199 48.0939 81.7469 46.9854 82.7006 45.6347C83.6876 44.2647 84.3533 42.569 84.6977 40.5478C85.042 38.5265 85.0002 36.1058 84.5722 33.2858L85.6724 32.6506Z" fill="#E8C547"/>
<path d="M27.6874 19.4423C27.8976 18.2102 28.7162 17.474 29.5155 17.7978C30.3149 18.1218 30.793 19.3838 30.5829 20.6161L21.7352 72.4999H76.912V80.9999H7.99304V72.4999H18.6395L27.6874 19.4423Z" fill="#6B5E4E"/>
<g clip-path="url(#clip2_424_298)">
<circle cx="10.7011" cy="77.3243" r="0.870141" fill="#0A0A0C"/>
<circle cx="14.4302" cy="77.3243" r="0.870141" fill="#0A0A0C"/>
<circle cx="18.1594" cy="77.3243" r="0.870141" fill="#0A0A0C"/>
<circle cx="21.8886" cy="77.3243" r="0.870141" fill="#0A0A0C"/>
<circle cx="25.6177" cy="77.3243" r="0.870141" fill="#0A0A0C"/>
<circle cx="29.3469" cy="77.3243" r="0.870141" fill="#0A0A0C"/>
<circle cx="33.0761" cy="77.3243" r="0.870141" fill="#0A0A0C"/>
<circle cx="36.8053" cy="77.3243" r="0.870141" fill="#0A0A0C"/>
<circle cx="40.5343" cy="77.3243" r="0.870141" fill="#0A0A0C"/>
<circle cx="44.2636" cy="77.3243" r="0.870141" fill="#0A0A0C"/>
<circle cx="47.9927" cy="77.3243" r="0.870141" fill="#0A0A0C"/>
<circle cx="51.7219" cy="77.3243" r="0.870141" fill="#0A0A0C"/>
<circle cx="55.4511" cy="77.3243" r="0.870141" fill="#0A0A0C"/>
<circle cx="59.1803" cy="77.3243" r="0.870141" fill="#0A0A0C"/>
<circle cx="62.9094" cy="77.3243" r="0.870141" fill="#0A0A0C"/>
<circle cx="66.6387" cy="77.3243" r="0.870141" fill="#0A0A0C"/>
<circle cx="70.3678" cy="77.3243" r="0.870141" fill="#0A0A0C"/>
<circle cx="74.0969" cy="77.3243" r="0.870141" fill="#0A0A0C"/>
</g>
</g>
<defs>
<clipPath id="clip0_424_298">
<rect width="93" height="94" fill="white"/>
</clipPath>
<clipPath id="clip1_424_298">
<rect width="63.4054" height="1.83784" fill="white" transform="translate(20.8579 15.7567)"/>
</clipPath>
<clipPath id="clip2_424_298">
<rect width="65.2432" height="1.83784" fill="white" transform="translate(9.83093 76.4054)"/>
</clipPath>
</defs>
</svg>
