<svg width="94" height="94" viewBox="0 0 94 94" fill="none" xmlns="http://www.w3.org/2000/svg">
<rect width="94" height="94" rx="4" fill="#0A0A0C"/>
<mask id="mask0_424_302" style="mask-type:alpha" maskUnits="userSpaceOnUse" x="1" y="3" width="92" height="88">
<rect x="1" y="3" width="92" height="88" fill="#D9D9D9"/>
</mask>
<g mask="url(#mask0_424_302)">
<path d="M77.4355 17.0111C77.6642 15.6699 78.5551 14.8683 79.4251 15.2209C80.295 15.5735 80.815 16.9469 80.5863 18.2881L70.5649 77.053C70.3362 78.3941 69.4453 79.1958 68.5754 78.8432C67.7054 78.4906 67.1855 77.1171 67.4142 75.776L77.4355 17.0111Z" fill="#6B5E4E"/>
<path d="M87.2639 13V20.0833H17.426V13H87.2639Z" fill="#6B5E4E"/>
<g clip-path="url(#clip0_424_302)">
<circle cx="22.211" cy="16.6756" r="0.870141" fill="#0A0A0C"/>
<circle cx="25.9401" cy="16.6756" r="0.870141" fill="#0A0A0C"/>
<circle cx="29.6693" cy="16.6756" r="0.870141" fill="#0A0A0C"/>
<circle cx="33.3985" cy="16.6756" r="0.870141" fill="#0A0A0C"/>
<circle cx="37.1277" cy="16.6756" r="0.870141" fill="#0A0A0C"/>
<circle cx="40.8568" cy="16.6756" r="0.870141" fill="#0A0A0C"/>
<circle cx="44.5861" cy="16.6756" r="0.870141" fill="#0A0A0C"/>
<circle cx="48.3152" cy="16.6756" r="0.870141" fill="#0A0A0C"/>
<circle cx="52.0443" cy="16.6756" r="0.870141" fill="#0A0A0C"/>
<circle cx="55.7735" cy="16.6756" r="0.870141" fill="#0A0A0C"/>
<circle cx="59.5027" cy="16.6756" r="0.870141" fill="#0A0A0C"/>
<circle cx="63.2318" cy="16.6756" r="0.870141" fill="#0A0A0C"/>
<circle cx="66.9611" cy="16.6756" r="0.870141" fill="#0A0A0C"/>
<circle cx="70.6902" cy="16.6756" r="0.870141" fill="#0A0A0C"/>
<circle cx="74.4195" cy="16.6756" r="0.870141" fill="#0A0A0C"/>
<circle cx="78.1486" cy="16.6756" r="0.870141" fill="#0A0A0C"/>
<circle cx="81.8777" cy="16.6756" r="0.870141" fill="#0A0A0C"/>
<circle cx="85.607" cy="16.6756" r="0.870141" fill="#0A0A0C"/>
</g>
<path d="M34.4924 29.9754L38.3929 27.7234C39.8931 26.8572 41.3337 26.0033 42.7146 25.1615C44.0956 24.3198 45.3099 23.5743 46.3574 22.925L46.6848 24.0695C45.5706 24.7573 44.7641 25.4007 44.2654 25.9998C43.7475 26.5655 43.4784 27.2543 43.4581 28.0661C43.452 28.8253 43.6383 29.9179 44.0171 31.3439L51.7364 59.9585C52.1293 61.3319 52.5156 62.309 52.8954 62.8898C53.3086 63.4514 53.8396 63.6782 54.4884 63.5702C55.1373 63.4623 56.0311 63.1241 57.1698 62.5556L57.5472 63.6712C56.4419 64.2205 55.1891 64.8993 53.7889 65.7077C52.4028 66.4635 50.9596 67.2745 49.4594 68.1406C47.8592 69.0645 46.3353 69.9666 44.8877 70.8468C43.4541 71.6745 42.3399 72.3622 41.5449 72.9101L41.1675 71.7945C42.2959 71.0541 43.1023 70.4107 43.5869 69.8642C44.1049 69.2985 44.374 68.6098 44.3942 67.798C44.4145 66.9862 44.2282 65.8936 43.8353 64.5202L35.5246 33.38L33.5381 77.8662L32.438 78.5014L10.6603 50.1357L18.2178 77.7769C18.567 78.9977 18.9726 80.0082 19.4345 80.8083C19.9298 81.5892 20.6122 82.0397 21.4817 82.1599C22.3654 82.2276 23.5766 81.8617 25.1153 81.0623L25.4927 82.1779C25.0734 82.3755 24.5303 82.6668 23.8636 83.0518C23.1776 83.4034 22.4678 83.7909 21.7344 84.2144C21.0151 84.5852 20.372 84.9343 19.8053 85.2615C18.9385 85.7619 18.0813 86.279 17.2338 86.8128C16.367 87.3133 15.6695 87.7604 15.1412 88.1543L14.8138 87.0098C15.9421 86.2695 16.7146 85.4901 17.1311 84.6718C17.5618 83.8008 17.7462 82.8499 17.6843 81.8188C17.6224 80.7877 17.4168 79.6618 17.0676 78.441L9.76224 51.1209C9.38345 49.695 8.99711 48.7178 8.60323 48.1896C8.19009 47.628 7.65908 47.4012 7.01018 47.5091C6.37538 47.5645 5.48161 47.9027 4.32887 48.5238L4.00147 47.3793C4.78749 46.9699 5.79021 46.4354 7.00963 45.7759C8.26238 45.097 9.57219 44.363 10.939 43.5739C11.7392 43.1119 12.5296 42.6333 13.3105 42.138C14.0914 41.6427 14.7722 41.2052 15.3531 40.8254L32.9568 64.7333L34.4924 29.9754Z" fill="#EFEFEF"/>
<path d="M86.1553 32.6506C86.2632 33.2995 86.4193 34.0318 86.6235 34.8474C86.8276 35.6629 87.0607 36.5285 87.3226 37.4441C87.5216 38.1738 87.8342 39.2157 88.2604 40.5699C88.6674 41.8907 89.1366 43.2422 89.668 44.6246C87.9292 45.5395 86.0097 46.6033 83.9094 47.8159C81.7899 48.9952 79.8967 50.066 78.2298 51.0284C77.3963 51.5096 76.3295 52.1255 75.0293 52.8762C73.7625 53.6076 72.3719 54.4327 70.8576 55.3514C69.3241 56.2368 67.8001 57.1389 66.2858 58.0576C64.7523 58.943 63.3117 59.7969 61.9641 60.6194L61.6367 59.4749C62.7317 58.7538 63.5382 58.1104 64.0561 57.5447C64.574 56.9789 64.8265 56.2998 64.8134 55.5072C64.8336 54.6954 64.664 53.5932 64.3045 52.2006L56.5851 23.586C56.2063 22.16 55.82 21.1829 55.4261 20.6547C55.0129 20.0931 54.4819 19.8663 53.833 19.9742C53.1982 20.0295 52.3045 20.3678 51.1517 20.9888L50.8243 19.8443C51.7104 19.3772 52.8964 18.7369 54.3826 17.9233C55.902 17.0905 57.4952 16.1929 59.1621 15.2306C60.629 14.3837 62.0362 13.549 63.3838 12.7265C64.7314 11.904 65.8957 11.1873 66.8766 10.5766L67.204 11.7211C66.0897 12.4088 65.2833 13.0522 64.7846 13.6513C64.2666 14.2171 63.9975 14.9058 63.9773 15.7176C63.9378 16.4961 64.1074 17.5983 64.4862 19.0243L72.2056 47.6388C72.5984 49.0122 72.9848 49.9894 73.3646 50.5702C73.7444 51.151 74.242 51.3971 74.8576 51.3084C75.4872 51.1671 76.3688 50.7693 77.5023 50.1149L79.5026 48.96C81.0028 48.0939 82.2298 46.9854 83.1835 45.6347C84.1706 44.2647 84.8363 42.569 85.1806 40.5478C85.5249 38.5265 85.4831 36.1058 85.0552 33.2858L86.1553 32.6506Z" fill="#E8C547"/>
<path d="M28.1703 19.4423C28.3805 18.2102 29.1991 17.474 29.9984 17.7978C30.7978 18.1218 31.2759 19.3838 31.0658 20.6161L22.2181 72.4999H77.3949V80.9999H8.47595V72.4999H19.1224L28.1703 19.4423Z" fill="#6B5E4E"/>
<g clip-path="url(#clip1_424_302)">
<circle cx="11.184" cy="77.3243" r="0.870141" fill="#0A0A0C"/>
<circle cx="14.9131" cy="77.3243" r="0.870141" fill="#0A0A0C"/>
<circle cx="18.6424" cy="77.3243" r="0.870141" fill="#0A0A0C"/>
<circle cx="22.3715" cy="77.3243" r="0.870141" fill="#0A0A0C"/>
<circle cx="26.1006" cy="77.3243" r="0.870141" fill="#0A0A0C"/>
<circle cx="29.8299" cy="77.3243" r="0.870141" fill="#0A0A0C"/>
<circle cx="33.559" cy="77.3243" r="0.870141" fill="#0A0A0C"/>
<circle cx="37.2882" cy="77.3243" r="0.870141" fill="#0A0A0C"/>
<circle cx="41.0172" cy="77.3243" r="0.870141" fill="#0A0A0C"/>
<circle cx="44.7465" cy="77.3243" r="0.870141" fill="#0A0A0C"/>
<circle cx="48.4756" cy="77.3243" r="0.870141" fill="#0A0A0C"/>
<circle cx="52.2049" cy="77.3243" r="0.870141" fill="#0A0A0C"/>
<circle cx="55.934" cy="77.3243" r="0.870141" fill="#0A0A0C"/>
<circle cx="59.6632" cy="77.3243" r="0.870141" fill="#0A0A0C"/>
<circle cx="63.3924" cy="77.3243" r="0.870141" fill="#0A0A0C"/>
<circle cx="67.1216" cy="77.3243" r="0.870141" fill="#0A0A0C"/>
<circle cx="70.8507" cy="77.3243" r="0.870141" fill="#0A0A0C"/>
<circle cx="74.5799" cy="77.3243" r="0.870141" fill="#0A0A0C"/>
</g>
</g>
<defs>
<clipPath id="clip0_424_302">
<rect width="63.4054" height="1.83784" fill="white" transform="translate(21.3408 15.7567)"/>
</clipPath>
<clipPath id="clip1_424_302">
<rect width="65.2432" height="1.83784" fill="white" transform="translate(10.3138 76.4054)"/>
</clipPath>
</defs>
</svg>
