<svg width="24" height="36" viewBox="0 0 24 36" fill="none" xmlns="http://www.w3.org/2000/svg">
<ellipse cx="12" cy="12.5" rx="6" ry="5.5" fill="#020202"/>
<mask id="path-2-inside-1_429_11" fill="white">
<path d="M12 0C18.9036 0 24 5.59644 24 12.5C24 19.4036 20.5 23 12 36C4 23 0 19.4036 0 12.5C0 5.59644 5.09644 0 12 0ZM12 8C9.51472 8 7.5 10.0147 7.5 12.5C7.5 14.9853 9.51472 17 12 17C14.4853 17 16.5 14.9853 16.5 12.5C16.5 10.0147 14.4853 8 12 8Z"/>
</mask>
<path d="M12 0C18.9036 0 24 5.59644 24 12.5C24 19.4036 20.5 23 12 36C4 23 0 19.4036 0 12.5C0 5.59644 5.09644 0 12 0ZM12 8C9.51472 8 7.5 10.0147 7.5 12.5C7.5 14.9853 9.51472 17 12 17C14.4853 17 16.5 14.9853 16.5 12.5C16.5 10.0147 14.4853 8 12 8Z" fill="#E8C547"/>
<path d="M12 36L11.3613 36.3931L11.9808 37.3998L12.6277 36.4104L12 36ZM12 0V0.75C18.4497 0.75 23.25 5.96992 23.25 12.5H24H24.75C24.75 5.22297 19.3574 -0.75 12 -0.75V0ZM24 12.5H23.25C23.25 15.7862 22.429 18.283 20.5365 21.5914C18.6127 24.9546 15.6522 29.0438 11.3723 35.5896L12 36L12.6277 36.4104C16.8478 29.9562 19.8873 25.7472 21.8385 22.3362C23.821 18.8706 24.75 16.1174 24.75 12.5H24ZM12 36L12.6387 35.6069C10.6322 32.3463 8.87672 29.6758 7.37599 27.4015C5.87165 25.1217 4.63403 23.2561 3.64582 21.5825C1.68349 18.2592 0.75 15.7682 0.75 12.5H0H-0.75C-0.75 16.1354 0.316514 18.8943 2.35418 22.3452C3.36597 24.0587 4.62835 25.9611 6.12401 28.2276C7.62328 30.4997 9.36781 33.1537 11.3613 36.3931L12 36ZM0 12.5H0.75C0.75 5.96992 5.55025 0.75 12 0.75V0V-0.75C4.64263 -0.75 -0.75 5.22297 -0.75 12.5H0ZM12 8V7.25C9.1005 7.25 6.75 9.6005 6.75 12.5H7.5H8.25C8.25 10.4289 9.92893 8.75 12 8.75V8ZM7.5 12.5H6.75C6.75 15.3995 9.1005 17.75 12 17.75V17V16.25C9.92893 16.25 8.25 14.5711 8.25 12.5H7.5ZM12 17V17.75C14.8995 17.75 17.25 15.3995 17.25 12.5H16.5H15.75C15.75 14.5711 14.0711 16.25 12 16.25V17ZM16.5 12.5H17.25C17.25 9.6005 14.8995 7.25 12 7.25V8V8.75C14.0711 8.75 15.75 10.4289 15.75 12.5H16.5Z" fill="black" fill-opacity="0.19" mask="url(#path-2-inside-1_429_11)"/>
</svg>
