<svg width="243" height="51" viewBox="0 0 243 51" fill="none" xmlns="http://www.w3.org/2000/svg">
<path d="M61.1634 12.4548H64.2358C65.4175 12.4548 66.5598 12.4417 67.6628 12.4154C68.7657 12.3892 69.7373 12.3629 70.5776 12.3366L70.3807 13.1244C69.4878 13.1507 68.7919 13.2557 68.293 13.4396C67.7941 13.5971 67.4002 13.9122 67.1113 14.3849C66.8487 14.8313 66.5861 15.5404 66.3235 16.512L61.124 36.0494C60.8877 36.9948 60.7826 37.7038 60.8089 38.1765C60.8614 38.6492 61.0977 38.9643 61.5179 39.1219C61.9381 39.2794 62.5814 39.3845 63.448 39.437L63.2905 40.2248C62.4501 40.1723 61.4785 40.146 60.3756 40.146C59.2989 40.1197 58.1698 40.1066 56.9881 40.1066C55.7276 40.1066 54.5196 40.1197 53.3642 40.146C52.235 40.146 51.3421 40.1723 50.6856 40.2248L50.8432 39.437C51.7623 39.3845 52.4582 39.2794 52.9309 39.1219C53.4298 38.9643 53.8237 38.6492 54.1126 38.1765C54.4014 37.7038 54.664 36.9948 54.9004 36.0494L60.6119 14.8182L44.2651 40.4217H43.3985L40.2079 16.2362L35.2447 35.1435C35.0347 35.9838 34.9296 36.7191 34.9296 37.3493C34.9559 37.9796 35.2054 38.4785 35.678 38.8461C36.177 39.1875 37.0173 39.3845 38.199 39.437L38.0414 40.2248C37.7263 40.1985 37.3062 40.1854 36.781 40.1854C36.2558 40.1591 35.7043 40.146 35.1266 40.146C34.5751 40.1197 34.0762 40.1066 33.6298 40.1066C32.947 40.1066 32.2642 40.1197 31.5815 40.146C30.8987 40.146 30.3341 40.1723 29.8877 40.2248L30.0846 39.437C31.0037 39.3845 31.7259 39.1875 32.2511 38.8461C32.8026 38.4785 33.2358 37.9796 33.551 37.3493C33.8661 36.7191 34.1287 35.9838 34.3388 35.1435L39.3413 16.512C39.6039 15.5404 39.7089 14.8313 39.6564 14.3849C39.6039 13.9122 39.3676 13.5971 38.9474 13.4396C38.5535 13.2557 37.9101 13.1507 37.0173 13.1244L37.2142 12.3366C37.8182 12.3629 38.5929 12.3892 39.5383 12.4154C40.5099 12.4417 41.534 12.4548 42.6107 12.4548C43.2409 12.4548 43.8712 12.4417 44.5014 12.4154C45.1316 12.3892 45.6831 12.3629 46.1558 12.3366L48.401 32.4649L61.1634 12.4548Z" fill="#EFEFEF"/>
<path d="M80.2774 20.0965C79.6734 20.0965 79.0301 20.4641 78.3473 21.1994C77.6908 21.9084 77.0343 22.8669 76.3778 24.0749C75.7476 25.2828 75.1698 26.6352 74.6446 28.132C74.1457 29.6289 73.7387 31.1782 73.4235 32.7801C73.1347 34.3557 72.9903 35.8656 72.9903 37.3099C72.9903 38.2553 73.0953 38.938 73.3054 39.3582C73.5417 39.7784 73.8831 39.9884 74.3295 39.9884C74.9335 39.9884 75.5637 39.6471 76.2202 38.9643C76.8767 38.2553 77.5201 37.3099 78.1504 36.1282C78.7806 34.9465 79.3452 33.6204 79.8441 32.1498C80.3693 30.653 80.7895 29.1037 81.1046 27.5018C81.4197 25.8999 81.5773 24.3506 81.5773 22.8538C81.5773 21.7509 81.4591 21.0156 81.2228 20.6479C81.0127 20.2803 80.6976 20.0965 80.2774 20.0965ZM67.712 34.2769C67.712 33.0689 67.8695 31.7822 68.1847 30.4167C68.5261 29.0511 69.0381 27.7119 69.7209 26.3989C70.4036 25.0859 71.244 23.9042 72.2418 22.8538C73.266 21.7771 74.4608 20.9237 75.8263 20.2934C77.2181 19.6369 78.7675 19.3087 80.4744 19.3087C82.4964 19.3087 84.0589 19.8601 85.1618 20.9631C86.291 22.066 86.8556 23.681 86.8556 25.808C86.8556 27.016 86.6849 28.3027 86.3435 29.6683C86.0284 31.0338 85.5294 32.373 84.8467 33.686C84.1639 34.999 83.3104 36.1939 82.2863 37.2705C81.2884 38.3209 80.0936 39.1744 78.7018 39.8309C77.3363 40.4611 75.8001 40.7762 74.0932 40.7762C72.0712 40.7762 70.4956 40.2248 69.3664 39.1219C68.2635 38.0189 67.712 36.404 67.712 34.2769Z" fill="#EFEFEF"/>
<path d="M106.483 27.2655C105.433 26.7403 104.514 26.0181 103.726 25.099C102.965 24.1799 102.597 23.1164 102.623 21.9084C102.65 21.0681 102.899 20.4247 103.372 19.9783C103.844 19.5319 104.448 19.3087 105.184 19.3087C106.182 19.3087 106.891 19.7157 107.311 20.5298C107.731 21.3438 107.902 22.4467 107.823 23.8385C107.744 25.3091 107.508 26.8453 107.114 28.4472C106.746 30.0228 106.221 31.5458 105.538 33.0164C104.882 34.487 104.041 35.8131 103.017 36.9948C102.019 38.1502 100.851 39.0693 99.5114 39.7521C98.1984 40.4349 96.7016 40.7762 95.021 40.7762C93.5767 40.7762 92.4475 40.5399 91.6334 40.0672C90.8194 39.5683 90.2417 38.9512 89.9003 38.2159C89.5852 37.4544 89.4407 36.6797 89.467 35.8919C89.4932 34.29 89.9659 32.6488 90.885 30.9681C91.8041 29.2875 93.0515 27.6068 94.6271 25.9262C96.2289 24.2193 98.0278 22.5518 100.024 20.9237C99.367 21.0024 98.7762 21.2125 98.251 21.5539C97.7258 21.8953 97.24 22.2629 96.7935 22.6568C96.3471 23.0507 95.9007 23.3921 95.4543 23.681C95.0341 23.9698 94.5877 24.1143 94.115 24.1143C93.6686 24.1143 93.2747 23.9961 92.9333 23.7597C92.6182 23.4971 92.2637 23.3658 91.8698 23.3658C91.5021 23.3658 91.2002 23.5103 90.9638 23.7991C90.7537 24.088 90.5305 24.5738 90.2942 25.2566L89.9791 26.3201H89.2306L90.0972 23.4446C90.5437 21.8165 91.0951 20.7136 91.7516 20.1359C92.4344 19.5581 93.1171 19.2693 93.7999 19.2693C94.2988 19.2693 94.719 19.3875 95.0604 19.6238C95.428 19.8339 95.8088 20.0439 96.2027 20.254C96.6228 20.4641 97.1612 20.5692 97.8177 20.5692C98.2378 20.5692 98.6843 20.5166 99.1569 20.4116C99.6559 20.2803 100.168 20.0571 100.693 19.742L101.087 18.9935L101.914 19.3874C100.969 20.753 100.115 22.1579 99.3539 23.6022C98.5924 25.0202 97.9359 26.4514 97.3844 27.8957C96.8329 29.3137 96.3996 30.6924 96.0845 32.0317C95.7694 33.3447 95.5856 34.5657 95.5331 35.6949C95.4805 36.8504 95.5987 37.6907 95.8876 38.2159C96.1764 38.7411 96.6491 39.0037 97.3056 39.0037C98.2772 39.0037 99.1963 38.7674 100.063 38.2947C100.929 37.7957 101.717 37.1392 102.426 36.3252C103.135 35.4848 103.766 34.5657 104.317 33.5679C104.869 32.5437 105.328 31.4933 105.696 30.4167C106.063 29.3137 106.326 28.2633 106.483 27.2655Z" fill="#EFEFEF"/>
<path d="M115.756 13.282C115.808 12.1528 116.215 11.2862 116.977 10.6822C117.764 10.0783 118.697 9.77628 119.773 9.77628C120.745 9.77628 121.48 10.0126 121.979 10.4853C122.504 10.9317 122.741 11.562 122.688 12.376C122.636 13.4002 122.216 14.2405 121.428 14.897C120.64 15.5272 119.695 15.8423 118.592 15.8423C117.673 15.8423 116.95 15.6191 116.425 15.1727C115.926 14.7 115.703 14.0698 115.756 13.282ZM114.259 23.2083C114.705 21.8953 114.561 21.2388 113.825 21.2388C113.353 21.2388 112.919 21.4751 112.526 21.9478C112.132 22.4205 111.725 23.2214 111.304 24.3506L110.517 26.3595H109.768L110.871 23.3658C111.239 22.3154 111.698 21.5014 112.25 20.9237C112.828 20.3459 113.458 19.9389 114.141 19.7026C114.85 19.44 115.585 19.3087 116.346 19.3087C117.265 19.3087 117.988 19.4794 118.513 19.8207C119.038 20.1621 119.393 20.6085 119.576 21.16C119.76 21.6852 119.826 22.2761 119.773 22.9326C119.721 23.5628 119.59 24.193 119.379 24.8233L115.243 36.8766C115.007 37.5857 114.941 38.0977 115.047 38.4128C115.178 38.7017 115.427 38.8461 115.795 38.8461C116.136 38.8461 116.504 38.6492 116.898 38.2553C117.318 37.8614 117.778 37.0211 118.276 35.7343L118.986 33.8436H119.734L118.71 36.7191C118.342 37.7957 117.869 38.6229 117.292 39.2006C116.714 39.7784 116.084 40.1854 115.401 40.4217C114.745 40.6581 114.075 40.7762 113.392 40.7762C112.263 40.7762 111.396 40.5268 110.792 40.0278C110.215 39.5289 109.9 38.8067 109.847 37.8614C109.795 36.916 109.978 35.8 110.398 34.5132L114.259 23.2083Z" fill="#EFEFEF"/>
<path d="M126.638 31.6771C127.714 31.257 128.738 30.7843 129.71 30.2591C130.682 29.7339 131.509 29.1562 132.192 28.5259C133.216 27.6068 134.03 26.5433 134.634 25.3353C135.264 24.1011 135.579 22.775 135.579 21.357C135.579 20.8318 135.527 20.4904 135.422 20.3328C135.317 20.149 135.159 20.0571 134.949 20.0571C134.371 20.0571 133.741 20.3591 133.058 20.9631C132.402 21.5408 131.745 22.3286 131.089 23.3265C130.432 24.2981 129.828 25.4141 129.277 26.6746C128.752 27.9351 128.318 29.2481 127.977 30.6136C127.662 31.9791 127.504 33.3053 127.504 34.592C127.504 36.0626 127.78 37.0736 128.331 37.625C128.909 38.1502 129.644 38.4128 130.537 38.4128C131.246 38.4128 132.126 38.1765 133.176 37.7038C134.227 37.2311 135.264 36.3908 136.288 35.1829L136.918 35.498C136.367 36.3646 135.645 37.2049 134.752 38.0189C133.859 38.833 132.822 39.5026 131.64 40.0278C130.458 40.5268 129.172 40.7762 127.78 40.7762C126.598 40.7762 125.535 40.5662 124.589 40.146C123.67 39.7258 122.935 39.1087 122.384 38.2947C121.858 37.4544 121.596 36.4302 121.596 35.2222C121.596 33.8305 121.819 32.3993 122.265 30.9287C122.738 29.4582 123.395 28.0401 124.235 26.6746C125.075 25.2828 126.086 24.0355 127.268 22.9326C128.45 21.8034 129.763 20.9237 131.207 20.2934C132.651 19.6369 134.187 19.3087 135.816 19.3087C136.971 19.3087 137.943 19.5713 138.73 20.0965C139.518 20.5954 139.912 21.3701 139.912 22.4205C139.912 23.4446 139.623 24.4031 139.046 25.296C138.494 26.1888 137.746 27.0029 136.8 27.7381C135.855 28.4734 134.791 29.1299 133.61 29.7076C132.454 30.2854 131.259 30.7843 130.025 31.2045C128.817 31.6246 127.675 31.9529 126.598 32.1892L126.638 31.6771Z" fill="#EFEFEF"/>
<path d="M162.079 31.9529C161.921 32.373 161.764 32.8588 161.606 33.4103C161.449 33.9618 161.291 34.5526 161.133 35.1829C161.002 35.6818 160.831 36.404 160.621 37.3493C160.411 38.2684 160.228 39.2269 160.07 40.2248C158.731 40.1723 157.234 40.146 155.579 40.146C153.925 40.1197 152.441 40.1066 151.128 40.1066C150.472 40.1066 149.632 40.1066 148.607 40.1066C147.61 40.1066 146.507 40.1197 145.299 40.146C144.091 40.146 142.883 40.1591 141.675 40.1854C140.467 40.1854 139.325 40.1985 138.248 40.2248L138.445 39.437C139.338 39.3845 140.034 39.2794 140.532 39.1219C141.031 38.9643 141.412 38.6492 141.675 38.1765C141.964 37.7038 142.239 36.9948 142.502 36.0494L147.701 16.512C147.964 15.5404 148.069 14.8313 148.017 14.3849C147.964 13.9122 147.728 13.5971 147.308 13.4396C146.914 13.2557 146.27 13.1507 145.377 13.1244L145.574 12.3366C146.257 12.3629 147.176 12.3892 148.332 12.4154C149.513 12.4417 150.761 12.4548 152.074 12.4548C153.229 12.4548 154.345 12.4417 155.422 12.4154C156.499 12.3892 157.431 12.3629 158.219 12.3366L158.022 13.1244C157.129 13.1507 156.433 13.2557 155.934 13.4396C155.435 13.5971 155.041 13.9122 154.752 14.3849C154.463 14.8313 154.188 15.5404 153.925 16.512L148.726 36.0494C148.489 36.9948 148.384 37.7038 148.411 38.1765C148.437 38.6492 148.647 38.9643 149.041 39.1219C149.461 39.2532 150.117 39.3188 151.01 39.3188H152.586C153.768 39.3188 154.87 39.0825 155.895 38.6098C156.945 38.1371 157.917 37.3624 158.809 36.2858C159.702 35.2091 160.503 33.7648 161.212 31.9529H162.079Z" fill="#E8C547"/>
<path d="M170.763 13.282C170.816 12.1528 171.223 11.2862 171.984 10.6822C172.772 10.0783 173.704 9.77628 174.781 9.77628C175.753 9.77628 176.488 10.0126 176.987 10.4853C177.512 10.9317 177.748 11.562 177.696 12.376C177.643 13.4002 177.223 14.2405 176.435 14.897C175.647 15.5272 174.702 15.8423 173.599 15.8423C172.68 15.8423 171.958 15.6191 171.433 15.1727C170.934 14.7 170.711 14.0698 170.763 13.282ZM169.266 23.2083C169.713 21.8953 169.568 21.2388 168.833 21.2388C168.36 21.2388 167.927 21.4751 167.533 21.9478C167.139 22.4205 166.732 23.2214 166.312 24.3506L165.524 26.3595H164.776L165.879 23.3658C166.246 22.3154 166.706 21.5014 167.257 20.9237C167.835 20.3459 168.465 19.9389 169.148 19.7026C169.857 19.44 170.592 19.3087 171.354 19.3087C172.273 19.3087 172.995 19.4794 173.52 19.8207C174.046 20.1621 174.4 20.6085 174.584 21.16C174.768 21.6852 174.833 22.2761 174.781 22.9326C174.728 23.5628 174.597 24.193 174.387 24.8233L170.251 36.8766C170.015 37.5857 169.949 38.0977 170.054 38.4128C170.185 38.7017 170.435 38.8461 170.803 38.8461C171.144 38.8461 171.512 38.6492 171.905 38.2553C172.326 37.8614 172.785 37.0211 173.284 35.7343L173.993 33.8436H174.742L173.717 36.7191C173.35 37.7957 172.877 38.6229 172.299 39.2006C171.722 39.7784 171.091 40.1854 170.409 40.4217C169.752 40.6581 169.082 40.7762 168.4 40.7762C167.271 40.7762 166.404 40.5268 165.8 40.0278C165.222 39.5289 164.907 38.8067 164.855 37.8614C164.802 36.916 164.986 35.8 165.406 34.5132L169.266 23.2083Z" fill="#E8C547"/>
<path d="M179.4 39.6733C179.61 39.7784 179.833 39.8571 180.07 39.9097C180.306 39.9359 180.595 39.9491 180.936 39.9491C181.908 39.9491 182.696 39.6602 183.3 39.0825C183.93 38.4785 184.245 37.6382 184.245 36.5615C184.245 35.6949 184.061 34.8152 183.694 33.9224C183.326 33.0033 182.774 32.0054 182.039 30.9287C181.435 29.9834 180.871 29.0643 180.345 28.1714C179.846 27.2786 179.597 26.2544 179.597 25.099C179.597 23.9698 179.886 22.9719 180.464 22.1054C181.041 21.2388 181.855 20.556 182.906 20.0571C183.982 19.5581 185.269 19.3087 186.766 19.3087C187.738 19.3087 188.67 19.4268 189.563 19.6632C190.482 19.8995 191.243 20.3066 191.847 20.8843C192.451 21.462 192.753 22.3023 192.753 23.4052C192.753 23.7991 192.661 24.2324 192.478 24.7051C192.32 25.1778 192.057 25.5717 191.69 25.8868C191.348 26.1757 190.902 26.3201 190.35 26.3201C189.694 26.3201 189.169 26.0838 188.775 25.6111C188.381 25.1121 188.184 24.4688 188.184 23.681C188.184 22.9719 188.302 22.3417 188.539 21.7902C188.801 21.2125 189.09 20.753 189.405 20.4116C189.064 20.2015 188.604 20.0965 188.026 20.0965C187.081 20.0965 186.333 20.3853 185.781 20.9631C185.256 21.5408 184.98 22.368 184.954 23.4446C184.954 24.0486 185.059 24.6263 185.269 25.1778C185.479 25.703 185.768 26.2413 186.136 26.7928C186.503 27.3442 186.897 27.9613 187.317 28.6441C188.105 29.9309 188.683 31.0338 189.051 31.9529C189.444 32.872 189.641 33.8042 189.641 34.7496C189.641 35.8788 189.339 36.9029 188.735 37.822C188.158 38.7148 187.304 39.437 186.175 39.9884C185.072 40.5136 183.759 40.7762 182.236 40.7762C181.133 40.7762 180.083 40.6318 179.085 40.343C178.087 40.0541 177.273 39.5814 176.643 38.9249C176.039 38.2422 175.737 37.3362 175.737 36.207C175.737 35.4717 175.934 34.8152 176.328 34.2375C176.695 33.6598 177.234 33.3709 177.943 33.3709C178.652 33.3709 179.203 33.6729 179.597 34.2769C179.991 34.8546 180.188 35.5768 180.188 36.4433C180.188 37.1261 180.083 37.7432 179.873 38.2947C179.689 38.8461 179.531 39.3057 179.4 39.6733Z" fill="#E8C547"/>
<path d="M208.861 19.8601L208.743 20.6479H195.074L195.271 19.8601H208.861ZM199.486 36.8766C199.302 37.5594 199.315 38.0583 199.525 38.3735C199.762 38.6886 200.103 38.8461 200.549 38.8461C201.101 38.8461 201.652 38.5704 202.204 38.0189C202.755 37.4675 203.241 36.614 203.661 35.4586L204.252 33.8436H205L204.213 36.1282C203.687 37.7038 202.913 38.8724 201.889 39.6339C200.891 40.3955 199.696 40.7762 198.304 40.7762C197.096 40.7762 196.164 40.5005 195.507 39.9491C194.851 39.3976 194.457 38.6492 194.326 37.7038C194.221 36.7322 194.326 35.6687 194.641 34.5132L200.549 13.991C201.679 13.9648 202.703 13.9122 203.622 13.8335C204.541 13.7547 205.421 13.6234 206.261 13.4396L199.486 36.8766Z" fill="#E8C547"/>
<path d="M243 0.0078125V3L229.082 2.99902C229.07 3.08415 229.054 3.17014 229.031 3.25586L217.261 48.0254L233 48.0273V51L0 50.9727V48L12.9258 48.001C12.9378 47.8909 12.9571 47.7793 12.9863 47.668L24.7324 2.99219H11V0L243 0.0078125ZM28.0439 2.99219C28.0376 3.15097 28.0163 3.31329 27.9736 3.47559L16.2676 48.001L213.894 48.0244C213.896 48.0147 213.898 48.0048 213.9 47.9951L225.73 2.99902L28.0439 2.99219Z" fill="#6B5E4E" fill-opacity="0.69"/>
</svg>
